<?xml version="1.0" encoding="utf-8"?>
<!-- Generator: Adobe Illustrator 16.0.0, SVG Export Plug-In . SVG Version: 6.00 Build 0)  -->
<!DOCTYPE svg PUBLIC "-//W3C//DTD SVG 1.1//EN" "http://www.w3.org/Graphics/SVG/1.1/DTD/svg11.dtd">
<svg version="1.1" id="Layer_1" xmlns="http://www.w3.org/2000/svg" xmlns:xlink="http://www.w3.org/1999/xlink" x="0px" y="0px"
	 width="400px" height="200px" viewBox="0 0 400 200" enable-background="new 0 0 400 200" xml:space="preserve">
<g>
	<g>
		<path fill="#006F45" d="M24.146,12.232c0,0,10.155,58.464,127.427,47.816c99.164-9.002,129.643,52.739,144.728,103.201
			c0,0,10.717-49.56,25.209-57.122c5.472-2.857,11.319-3.116,19.077,3.857c0,0-6.656-14.147-20.854-10.717
			c-8.181,1.975-17.834,9.951-23.81,40.012c0,0-21.423-95.776-129.138-89.608C45.092,56.642,24.146,12.232,24.146,12.232z"/>
		<path fill="#8FB73E" d="M156.907,61.543c0,0-124.229,22.292-151.736-38.582C5.17,22.961-8.144,114.739,156.907,61.543z"/>
		<path fill="#A6CE39" d="M120.097,73.129c0,0-71.439,32.284-108.391-0.729C11.706,72.399,20.962,140.102,120.097,73.129z"/>
	</g>
	<g>
		<path fill="#A6CE39" d="M20.394,116.436c3.185-0.559,7.6-0.978,13.606-0.978c6.512,0,11.29,1.33,14.402,3.845
			c2.895,2.309,4.776,6.014,4.776,10.421c0,4.475-1.446,8.182-4.197,10.697c-3.545,3.43-9.119,5.036-15.416,5.036
			c-1.664,0-3.185-0.068-4.343-0.28v17.762h-8.829V116.436z M29.223,138.396c1.086,0.28,2.534,0.348,4.343,0.348
			c6.658,0,10.711-3.146,10.711-8.67c0-5.247-3.764-8.043-9.914-8.043c-2.46,0-4.199,0.212-5.14,0.419V138.396z"/>
		<path fill="#A6CE39" d="M69.75,115.807v18.882h20.627v-18.882h8.904v47.132h-8.904v-20.77H69.75v20.77h-8.899v-47.132H69.75z"/>
		<path fill="#A6CE39" d="M152.763,138.883c0,15.806-9.914,24.825-23.374,24.825c-13.752,0-22.436-10.138-22.436-23.985
			c0-14.475,9.408-24.685,23.158-24.685C144.37,115.038,152.763,125.457,152.763,138.883z M116.361,139.582
			c0,9.582,4.996,17.273,13.535,17.273c8.611,0,13.46-7.762,13.46-17.622c0-8.88-4.561-17.343-13.46-17.343
			C121.066,121.891,116.361,129.863,116.361,139.582z"/>
		<path fill="#A6CE39" d="M160.437,162.938v-47.132h10.132l12.591,20.21c3.258,5.244,6.08,10.697,8.324,15.806h0.146
			c-0.58-6.296-0.797-12.379-0.797-19.58v-16.436h8.25v47.132h-9.191l-12.737-20.77c-3.112-5.104-6.369-10.909-8.758-16.221
			l-0.217,0.069c0.362,6.083,0.435,12.306,0.435,20.069v16.852H160.437z"/>
		<path fill="#A6CE39" d="M248.444,160.771c-3.114,1.119-9.193,2.656-15.706,2.656c-8.252,0-14.475-2.026-19.106-6.293
			c-4.343-3.986-6.876-10.209-6.804-17.342c0-14.892,11.002-24.476,27.139-24.476c6.009,0,10.711,1.19,12.957,2.238l-1.955,6.925
			c-2.678-1.12-5.934-2.03-11.074-2.03c-10.421,0-17.731,5.945-17.731,16.924c0,10.698,6.803,17.062,16.937,17.062
			c3.183,0,5.571-0.419,6.73-0.98V143.71h-8.613v-6.784h17.228V160.771z"/>
		<path fill="#A6CE39" d="M319.222,149.583l-4.197,13.355h-9.19l15.634-47.132h11.362l15.85,47.132h-9.555l-4.414-13.355H319.222z
			 M333.191,143.079l-3.838-11.608c-0.939-2.867-1.735-6.082-2.459-8.809h-0.146c-0.721,2.727-1.447,6.012-2.314,8.809
			l-3.765,11.608H333.191z"/>
		<path fill="#A6CE39" d="M355.48,162.938v-47.132h10.133l12.594,20.21c3.256,5.244,6.078,10.697,8.322,15.806h0.143
			c-0.577-6.296-0.793-12.379-0.793-19.58v-16.436h8.25v47.132h-9.19l-12.738-20.77c-3.115-5.104-6.367-10.909-8.758-16.221
			l-0.217,0.069c0.361,6.083,0.435,12.306,0.435,20.069v16.852H355.48z"/>
	</g>
</g>
<g>
	<path fill="#ED1C24" d="M29.048,181.127h-5.072l-1.711,3.277h-1.728l6.801-12.521h1.419l2.477,12.521h-1.592L29.048,181.127z
		 M24.689,179.777h4.119l-1.04-5.839L24.689,179.777z"/>
	<path fill="#ED1C24" d="M40.115,175.092l-0.198,1.04c0.779-0.826,1.723-1.227,2.83-1.204c0.59,0.012,1.091,0.146,1.5,0.405
		c0.41,0.257,0.692,0.621,0.848,1.091c0.871-1.02,1.9-1.519,3.087-1.496c0.928,0.023,1.613,0.336,2.054,0.937
		c0.441,0.603,0.605,1.41,0.491,2.426l-1.023,6.114h-1.548l1.014-6.132c0.035-0.298,0.035-0.569,0-0.816
		c-0.109-0.78-0.619-1.179-1.53-1.195c-0.568-0.012-1.083,0.165-1.543,0.528c-0.462,0.365-0.758,0.841-0.891,1.433l-1.058,6.183
		h-1.564l1.032-6.123c0.074-0.636-0.022-1.126-0.288-1.47c-0.267-0.345-0.682-0.523-1.243-0.534
		c-0.969-0.022-1.74,0.419-2.312,1.325l-1.178,6.802h-1.557l1.617-9.305L40.115,175.092z"/>
	<path fill="#ED1C24" d="M56.127,184.576c-1.159-0.023-2.063-0.45-2.717-1.282c-0.654-0.83-0.929-1.895-0.826-3.189l0.042-0.369
		c0.098-0.924,0.371-1.766,0.822-2.529c0.449-0.761,0.998-1.337,1.647-1.724c0.646-0.387,1.346-0.572,2.098-0.555
		c0.957,0.023,1.708,0.341,2.252,0.955c0.545,0.612,0.844,1.445,0.895,2.492c0.018,0.374,0.006,0.746-0.035,1.119l-0.094,0.713
		h-6.079c-0.104,0.844,0.035,1.56,0.417,2.15c0.381,0.59,0.95,0.897,1.707,0.92c0.917,0.023,1.766-0.39,2.546-1.237l0.894,0.756
		c-0.39,0.562-0.893,1.002-1.509,1.319C57.57,184.434,56.884,184.587,56.127,184.576z M57.116,176.228
		c-0.642-0.019-1.202,0.199-1.682,0.653c-0.478,0.451-0.858,1.125-1.139,2.02l4.522,0.01l0.035-0.139
		c0.092-0.723-0.024-1.323-0.348-1.801C58.18,176.492,57.717,176.243,57.116,176.228z"/>
	<path fill="#ED1C24" d="M64.304,175.092l-0.198,1.04c0.78-0.826,1.723-1.227,2.829-1.204c0.59,0.012,1.091,0.146,1.5,0.405
		c0.411,0.257,0.692,0.621,0.848,1.091c0.871-1.02,1.899-1.519,3.086-1.496c0.929,0.023,1.614,0.336,2.055,0.937
		c0.441,0.603,0.605,1.41,0.49,2.426l-1.023,6.114h-1.548l1.014-6.132c0.035-0.298,0.035-0.569,0-0.816
		c-0.109-0.78-0.619-1.179-1.529-1.195c-0.568-0.012-1.083,0.165-1.544,0.528c-0.462,0.365-0.758,0.841-0.891,1.433l-1.058,6.183
		h-1.564l1.031-6.123c0.074-0.636-0.022-1.126-0.288-1.47c-0.267-0.345-0.682-0.523-1.244-0.534
		c-0.969-0.022-1.739,0.419-2.312,1.325l-1.178,6.802h-1.557l1.617-9.305L64.304,175.092z"/>
	<path fill="#ED1C24" d="M84.734,179.795c-0.114,0.951-0.375,1.81-0.782,2.57c-0.407,0.764-0.9,1.328-1.479,1.694
		c-0.579,0.367-1.221,0.541-1.926,0.525c-1.124-0.023-1.958-0.444-2.502-1.265l-0.319,1.084h-1.435l2.295-13.208h1.557l-0.937,4.936
		c0.745-0.826,1.651-1.227,2.717-1.204c0.894,0.023,1.591,0.353,2.089,0.989c0.5,0.636,0.762,1.514,0.791,2.63
		c0.006,0.368-0.012,0.723-0.051,1.067L84.734,179.795z M83.255,178.897c0.018-0.837-0.123-1.476-0.421-1.919
		c-0.298-0.444-0.754-0.679-1.368-0.701c-0.969-0.022-1.789,0.464-2.458,1.461l-0.697,4.044c0.344,0.945,0.988,1.43,1.935,1.452
		c0.607,0.023,1.139-0.157,1.595-0.541c0.456-0.384,0.801-0.921,1.036-1.61S83.239,179.664,83.255,178.897z"/>
	<path fill="#ED1C24" d="M89.988,184.576c-1.158-0.023-2.063-0.45-2.717-1.282c-0.653-0.83-0.929-1.895-0.826-3.189l0.043-0.369
		c0.097-0.924,0.371-1.766,0.821-2.529c0.449-0.761,0.998-1.337,1.647-1.724c0.646-0.387,1.346-0.572,2.098-0.555
		c0.957,0.023,1.707,0.341,2.252,0.955c0.544,0.612,0.843,1.445,0.894,2.492c0.018,0.374,0.006,0.746-0.035,1.119l-0.094,0.713
		h-6.079c-0.103,0.844,0.036,1.56,0.417,2.15c0.381,0.59,0.95,0.897,1.707,0.92c0.917,0.023,1.766-0.39,2.545-1.237l0.895,0.756
		c-0.39,0.562-0.893,1.002-1.51,1.319C91.432,184.434,90.746,184.587,89.988,184.576z M90.977,176.228
		c-0.642-0.019-1.202,0.199-1.681,0.653c-0.479,0.451-0.858,1.125-1.139,2.02l4.523,0.01l0.034-0.139
		c0.092-0.723-0.024-1.323-0.348-1.801C92.042,176.492,91.579,176.243,90.977,176.228z"/>
	<path fill="#ED1C24" d="M100.884,176.518l-0.73-0.076c-0.998,0-1.784,0.45-2.357,1.35l-1.143,6.613h-1.556l1.616-9.305l1.504-0.008
		l-0.232,1.082c0.658-0.864,1.436-1.286,2.33-1.264c0.189,0,0.436,0.044,0.74,0.129L100.884,176.518z"/>
	<path fill="#ED1C24" d="M110.446,174.928c0.78,0.012,1.447,0.224,2.003,0.637c0.556,0.412,0.968,0.981,1.234,1.707
		c0.268,0.725,0.357,1.517,0.271,2.376l-0.017,0.19c-0.109,0.905-0.378,1.725-0.808,2.454c-0.43,0.731-0.986,1.301-1.668,1.708
		c-0.682,0.406-1.431,0.599-2.245,0.576c-0.773-0.012-1.44-0.224-1.999-0.637c-0.559-0.412-0.967-0.975-1.226-1.686
		c-0.257-0.711-0.349-1.494-0.275-2.347c0.086-0.964,0.347-1.83,0.782-2.598c0.436-0.769,0.997-1.362,1.682-1.784
		C108.865,175.104,109.62,174.905,110.446,174.928z M107.281,179.915c-0.04,0.361-0.04,0.737,0,1.127
		c0.057,0.677,0.26,1.216,0.606,1.617c0.348,0.4,0.81,0.609,1.389,0.627c0.516,0.018,0.992-0.11,1.427-0.383
		c0.436-0.272,0.803-0.684,1.101-1.233c0.298-0.551,0.49-1.161,0.576-1.832c0.045-0.527,0.055-0.972,0.026-1.333
		c-0.069-0.693-0.278-1.241-0.627-1.643c-0.351-0.401-0.815-0.613-1.395-0.635c-0.802-0.019-1.484,0.297-2.045,0.943
		c-0.562,0.649-0.909,1.498-1.041,2.546L107.281,179.915z"/>
	<path fill="#ED1C24" d="M115.863,184.404l1.411-8.074h-1.437l0.214-1.23h1.428l0.154-1.101c0.149-0.935,0.51-1.666,1.084-2.193
		c0.601-0.55,1.369-0.818,2.304-0.807c0.292,0,0.662,0.049,1.109,0.146l-0.189,1.306c-0.275-0.058-0.554-0.092-0.834-0.104
		c-0.539,0-0.975,0.168-1.311,0.502c-0.335,0.334-0.543,0.778-0.623,1.333l-0.138,0.917h1.926l-0.215,1.23h-1.926l-1.402,8.074
		H115.863z"/>
	<path fill="#ED1C24" d="M128.15,179.502l-0.851,4.902h-1.616l2.175-12.521l4.179,0.009c1.29,0,2.284,0.343,2.983,1.027
		c0.699,0.686,1.001,1.596,0.903,2.73c-0.104,1.197-0.581,2.141-1.432,2.829c-0.852,0.688-1.974,1.031-3.367,1.031L128.15,179.502z
		 M128.382,178.153l2.786,0.007c0.878,0,1.597-0.221,2.159-0.665c0.562-0.441,0.891-1.057,0.989-1.845
		c0.091-0.708-0.055-1.282-0.439-1.722c-0.384-0.441-0.944-0.671-1.677-0.694l-2.966-0.01L128.382,178.153z"/>
	<path fill="#ED1C24" d="M139.208,176.234c0.814-0.888,1.751-1.321,2.812-1.299c0.871,0.012,1.517,0.312,1.939,0.9
		c0.421,0.587,0.578,1.411,0.468,2.471l-1.014,6.098h-1.557l1.023-6.109c0.035-0.281,0.037-0.542,0.008-0.781
		c-0.097-0.8-0.57-1.21-1.418-1.228c-0.952-0.022-1.771,0.476-2.459,1.493l-1.152,6.625h-1.556l2.295-13.208h1.557L139.208,176.234z
		"/>
	<path fill="#ED1C24" d="M150.963,174.928c0.78,0.012,1.447,0.224,2.003,0.637c0.556,0.412,0.968,0.981,1.235,1.707
		c0.267,0.725,0.357,1.517,0.271,2.376l-0.018,0.19c-0.109,0.905-0.378,1.725-0.808,2.454c-0.43,0.731-0.986,1.301-1.668,1.708
		c-0.682,0.406-1.431,0.599-2.245,0.576c-0.773-0.012-1.44-0.224-1.999-0.637c-0.559-0.412-0.967-0.975-1.226-1.686
		c-0.258-0.711-0.35-1.494-0.275-2.347c0.086-0.964,0.347-1.83,0.783-2.598c0.436-0.769,0.997-1.362,1.681-1.784
		C149.383,175.104,150.138,174.905,150.963,174.928z M147.799,179.915c-0.04,0.361-0.04,0.737,0,1.127
		c0.058,0.677,0.26,1.216,0.606,1.617c0.347,0.4,0.81,0.609,1.389,0.627c0.516,0.018,0.992-0.11,1.427-0.383
		s0.803-0.684,1.101-1.233c0.298-0.551,0.491-1.161,0.576-1.832c0.046-0.527,0.055-0.972,0.026-1.333
		c-0.069-0.693-0.279-1.241-0.627-1.643c-0.35-0.401-0.815-0.613-1.394-0.635c-0.803-0.019-1.485,0.297-2.046,0.943
		c-0.563,0.649-0.909,1.498-1.041,2.546L147.799,179.915z"/>
	<path fill="#ED1C24" d="M158.711,175.092l-0.224,1.178c0.837-0.918,1.789-1.364,2.855-1.342c0.877,0.023,1.524,0.326,1.943,0.912
		c0.419,0.584,0.573,1.407,0.464,2.467l-1.015,6.098h-1.557l1.024-6.116c0.034-0.281,0.037-0.541,0.008-0.782
		c-0.097-0.801-0.57-1.211-1.418-1.229c-0.935-0.017-1.754,0.481-2.459,1.495l-1.152,6.632h-1.556l1.616-9.305L158.711,175.092z"/>
	<path fill="#ED1C24" d="M165.59,179.735c0.138-1.016,0.411-1.897,0.821-2.645c0.41-0.749,0.908-1.302,1.497-1.66
		c0.587-0.357,1.23-0.528,1.93-0.512c1.078,0.023,1.892,0.431,2.442,1.221l0.31-1.04h1.428l-1.548,9.106
		c-0.166,1.187-0.647,2.138-1.444,2.851c-0.797,0.714-1.781,1.053-2.95,1.019c-0.631-0.012-1.233-0.16-1.81-0.447
		c-0.576-0.287-1.03-0.679-1.363-1.178l0.886-0.955c0.561,0.832,1.304,1.259,2.227,1.282c0.74,0.022,1.366-0.184,1.879-0.619
		s0.853-1.055,1.02-1.857l0.172-0.825c-0.757,0.756-1.643,1.123-2.658,1.101c-0.579-0.018-1.082-0.173-1.509-0.469
		c-0.427-0.295-0.758-0.723-0.993-1.281c-0.236-0.559-0.365-1.183-0.388-1.87C165.527,180.618,165.544,180.21,165.59,179.735z
		 M167.095,180.615c-0.018,0.818,0.125,1.452,0.425,1.902c0.301,0.449,0.755,0.686,1.363,0.707c0.929,0.023,1.729-0.432,2.399-1.364
		l0.731-4.269c-0.344-0.848-0.966-1.288-1.866-1.322c-0.843-0.023-1.535,0.32-2.077,1.03c-0.541,0.71-0.861,1.669-0.959,2.878
		L167.095,180.615z"/>
	<path fill="#ED1C24" d="M181.833,179.502l-0.851,4.902h-1.616l2.175-12.521l4.179,0.009c1.29,0,2.284,0.343,2.984,1.027
		c0.699,0.686,1,1.596,0.903,2.73c-0.104,1.197-0.581,2.141-1.431,2.829c-0.852,0.688-1.974,1.031-3.367,1.031L181.833,179.502z
		 M182.065,178.153l2.786,0.007c0.878,0,1.597-0.221,2.159-0.665c0.562-0.441,0.891-1.057,0.989-1.845
		c0.091-0.708-0.055-1.282-0.439-1.722c-0.384-0.441-0.944-0.671-1.677-0.694l-2.966-0.01L182.065,178.153z"/>
	<path fill="#ED1C24" d="M192.891,176.234c0.815-0.888,1.752-1.321,2.812-1.299c0.871,0.012,1.518,0.312,1.939,0.9
		c0.421,0.587,0.578,1.411,0.468,2.471l-1.014,6.098h-1.557l1.024-6.109c0.034-0.281,0.037-0.542,0.008-0.781
		c-0.098-0.8-0.57-1.21-1.418-1.228c-0.952-0.022-1.772,0.476-2.46,1.493l-1.151,6.625h-1.556l2.295-13.208h1.558L192.891,176.234z"
		/>
	<path fill="#ED1C24" d="M205.386,183.484c-0.729,0.75-1.654,1.114-2.777,1.092c-0.889-0.023-1.548-0.342-1.974-0.954
		c-0.428-0.615-0.586-1.452-0.478-2.511l0.998-6.012h1.556l-1.006,6.036c-0.029,0.253-0.035,0.499-0.018,0.74
		c0.029,0.412,0.151,0.736,0.37,0.971c0.217,0.236,0.521,0.362,0.911,0.378c1.112,0.035,1.972-0.414,2.58-1.349l1.169-6.776h1.557
		l-1.616,9.305h-1.471L205.386,183.484z"/>
	<path fill="#ED1C24" d="M223.081,180.413c-0.241,1.297-0.826,2.322-1.758,3.079s-2.049,1.118-3.349,1.084
		c-0.775-0.018-1.452-0.208-2.029-0.572c-0.581-0.364-1.029-0.889-1.352-1.573c-0.32-0.686-0.498-1.443-0.532-2.274
		c-0.023-0.47-0.004-0.929,0.061-1.376l0.146-1.032c0.27-1.88,0.93-3.363,1.981-4.45c1.053-1.085,2.332-1.615,3.839-1.586
		c1.176,0.022,2.107,0.402,2.796,1.139c0.688,0.738,1.051,1.76,1.092,3.066h-1.607c-0.075-1.754-0.763-2.701-2.063-2.838
		l-0.284-0.017c-1.084-0.029-1.988,0.373-2.713,1.208c-0.726,0.833-1.193,1.973-1.406,3.417l-0.189,1.299l-0.051,0.757
		c-0.034,1.055,0.152,1.894,0.563,2.515c0.409,0.623,1.019,0.945,1.826,0.967c0.872,0.03,1.593-0.179,2.163-0.626
		s1.004-1.167,1.303-2.159L223.081,180.413z"/>
	<path fill="#ED1C24" d="M229.669,174.928c0.779,0.012,1.447,0.224,2.003,0.637c0.557,0.412,0.968,0.981,1.233,1.707
		c0.268,0.725,0.357,1.517,0.271,2.376l-0.017,0.19c-0.109,0.905-0.378,1.725-0.809,2.454c-0.431,0.731-0.986,1.301-1.668,1.708
		c-0.683,0.406-1.431,0.599-2.244,0.576c-0.773-0.012-1.44-0.224-2-0.637c-0.559-0.412-0.967-0.975-1.226-1.686
		c-0.257-0.711-0.349-1.494-0.274-2.347c0.086-0.964,0.347-1.83,0.782-2.598c0.436-0.769,0.996-1.362,1.681-1.784
		C228.088,175.104,228.843,174.905,229.669,174.928z M226.505,179.915c-0.041,0.361-0.041,0.737,0,1.127
		c0.057,0.677,0.259,1.216,0.605,1.617c0.347,0.4,0.81,0.609,1.389,0.627c0.516,0.018,0.991-0.11,1.427-0.383
		c0.437-0.272,0.804-0.684,1.101-1.233c0.299-0.551,0.492-1.161,0.576-1.832c0.046-0.527,0.056-0.972,0.027-1.333
		c-0.069-0.693-0.278-1.241-0.628-1.643c-0.351-0.401-0.814-0.613-1.395-0.635c-0.802-0.019-1.484,0.297-2.045,0.943
		c-0.562,0.649-0.909,1.498-1.041,2.546L226.505,179.915z"/>
	<path fill="#ED1C24" d="M240.116,176.518l-0.73-0.076c-0.997,0-1.783,0.45-2.356,1.35l-1.144,6.613h-1.556l1.616-9.305l1.505-0.008
		l-0.231,1.082c0.658-0.864,1.436-1.286,2.329-1.264c0.189,0,0.437,0.044,0.74,0.129L240.116,176.518z"/>
	<path fill="#ED1C24" d="M248.62,179.795c-0.114,0.945-0.37,1.798-0.766,2.554c-0.395,0.757-0.885,1.323-1.47,1.698
		c-0.584,0.375-1.232,0.554-1.943,0.538c-1.078-0.023-1.904-0.387-2.477-1.093l-0.834,4.489h-1.557l2.235-12.882l1.411-0.008
		l-0.172,1.04c0.768-0.826,1.688-1.227,2.76-1.204c0.894,0.023,1.591,0.353,2.09,0.989c0.498,0.636,0.762,1.514,0.791,2.63
		c0.005,0.368-0.01,0.723-0.044,1.067L248.62,179.795z M247.089,179.619l0.044-0.722c0-0.837-0.159-1.476-0.478-1.919
		c-0.318-0.444-0.778-0.679-1.381-0.701c-0.899-0.022-1.676,0.404-2.329,1.279l-0.783,4.458c0.351,0.824,0.978,1.249,1.884,1.271
		c0.773,0.018,1.432-0.285,1.973-0.905C246.561,181.759,246.917,180.839,247.089,179.619z"/>
	<path fill="#ED1C24" d="M251.011,182.599c0.281-0.006,0.514,0.079,0.696,0.258c0.184,0.178,0.272,0.407,0.267,0.687
		c-0.005,0.281-0.101,0.509-0.282,0.685c-0.185,0.176-0.413,0.268-0.688,0.279s-0.502-0.068-0.68-0.236
		c-0.178-0.169-0.268-0.395-0.268-0.675c0-0.281,0.09-0.515,0.268-0.701C250.501,182.709,250.73,182.609,251.011,182.599z"/>
</g>
</svg>
